<?xml version="1.0"?><svg width="650" height="500" xmlns="http://www.w3.org/2000/svg">
 <title>Turquoise U.S. Map</title>
 <metadata id="metadata7">image/svg+xml</metadata>
 <g>
  <title>Layer 1</title>
  <g id="layer1"/>
  <path d="m581,120.000183l3,-6l-1,-9l0,-8l3,-8l3,0l2,1l5,-4l4,1l3,6l2,9l2,3l4,1l2,4l4,1l2,3l-6,6l-8,7l-1,4l-4,5l-5,5l-2,8l-6,-9l-3,-8l-3,-12z" id="path2833" stroke-width="1px" stroke="#000000" fill="#ffffff"/>
  <path d="m577,124.000183l4,-4l3,12l3,8l6,9l-1,4l-6,2l-9,4l-2,-9l1,-13l2,-4l-1,-3l0,-6z" id="path3607" stroke-width="1px" stroke="#000000" fill="#ffffff"/>
  <path d="m570,160.000183l7,-1l-2,-9l1,-13l2,-4l-1,-3l0,-3l-8,1l-8,3l0,5l2,5l1,8l2,0l2,9l2,2z" id="path3609" stroke-width="1px" stroke="#000000" fill="#ffffff"/>
  <path d="m570,170.000183l0,-10l7,-1l15,-6l3,1l-1,4l3,3l4,3l3,0l-2,-3l3,0l2,3l-1,2l-4,3l1,3l-4,0l-1,-3l-3,0l-5,-4l-20,5z" id="path3611" stroke-width="1px" stroke="#000000" fill="#ffffff"/>
  <path d="m589,175.000183l-2,-9l3,-1l3,3l0,5l-4,2z" id="path3613" stroke-width="1px" stroke="#000000" fill="#ffffff"/>
  <path d="m573,185.000183l12,-8l4,0l0,-2l-2,-9l-17,4l0,4l3,11z" id="path3615" stroke-width="1px" stroke="#000000" fill="#ffffff"/>
  <path d="m509,187.000183l0,-5l7,-6l-3,-9l16,-1l9,-7l0,-7l-3,-2l13,-15l13,-4l0,5l2,5l1,8l2,0l2,9l2,2l0,10l0,4l3,11l4,0l9,-5l2,1l-12,9l-4,-1l0,-3l-7,-2l-9,-2l-1,-4l-4,-1l-6,0l-12,5l-4,0l-20,5z" id="path3617" stroke-width="1px" stroke="#000000" fill="#ffffff"/>
  <path d="m561,183.000183l-2,6l1,6l4,4l-6,8l2,5l1,-1l6,4l4,-7l1,-5l0,-5l-1,-4l-2,-2l1,-2l2,-1l0,-3l-11,-3z" id="path3619" stroke-width="1px" stroke="#000000" fill="#ffffff"/>
  <path d="m568,222.000168l-8,-9l0,-1l-2,-4l1,6c0,0 2,10 2,10l7,0l0,-2z" id="path3642" stroke-width="1px" stroke="#000000" fill="#ffffff"/>
  <path d="m519,217.000168c2,0 39,-10 39,-10l0,2l3,15l6,0l0,5.000015l-5,2l-1,-1l-5,-4.000015l-5,-11l1,10l2,4.000015l-5,0l-4,-1.000015l0,-2l1,-2l-1,-3l-5,-1l-3,-2l-2,-3l-4,0l-1,2l-4,1l-5,6l-2,-7z" id="path3644" stroke-width="1px" stroke="#000000" fill="#ffffff"/>
  <path d="m509,182.000183l-8,8l3,6l2,14l2,8l11,-1l39,-10l6,-8l-4,-4l-1,-6l2,-6l-5,-1l-1,-4l-4,-1l-6,0l-12,5l-4,0l-20,5l0,-5z" id="path3646" stroke-width="1px" stroke="#000000" fill="#ffffff"/>
  <path d="m465,234.000183l-5,-34l3,-1l12,-2l4,2l6,0l6,-2l10,-7l3,6l2,13l-1,11l-2,4l-6,4l0,4l-3,1l-1,4l-1,3l-4,0l-3,-3l-2,2l-6,0l-1,-1l-4,0l-2,-3l-5,-1z" id="path3648" stroke-width="1px" stroke="#000000" fill="#ffffff"/>
  <path d="m490,240.000183l0,4l3,4l9,6l6,-1l3,-2l5,-3l0,-6l2,-3l1,-4l5,-3l3,-4l4,-5l-1,-3l4,-1l3,2l2,-2l-2,-1l-2,-3l-4,0l-1,2l-4,1l-5,6l-2,-7l-11,1l-2,-8l-1,10l-2,4l-6,4l0,4l-3,1l-2,7l-2,0z" id="path3650" stroke-width="1px" stroke="#000000" fill="#ffffff"/>
  <path d="m482,266.000183c2,1 22,-3 22,-3l49,-9l12,-4l-2,-4l-5,0l-3,-3l2,-3l-3,-4l3,-1l-4,-3l-5,-2l-3,-2l0,-2l1,-2l-1,-3l-5,-1l-1,-1l-2,2l-3,-2l-4,1l1,3l-7,9l-5,3l-1,4l-2,3l0,6l-8,5l-6,1l-4,-3l-10,11l-6,4z" id="path3652" stroke-width="1px" stroke="#000000" fill="#ffffff"/>
  <path d="m563,232.000183l-1,5l0,5l3,-4l0,-5l-2,-1z" id="path3654" stroke-width="1px" stroke="#000000" fill="#ffffff"/>
  <path d="m504,263.000183l49,-9l12,-4l1,3l-2,3l-4,2l0,1l6,0l3,1l1,3l-2,2l-8,2l1,2l3,3l0,3l-5,2l-2,2l-6,6l0,4l-3,1l-5,2l-2,0l-9,-8l-4,-1l-7,1l-2,2l-3,0l0,-3l-2,-2l-3,1l-10,0l-5,2l-6,4l-13,0l0,-3l4,-4l5,-2l7,-6l3,-1l6,-4l2,-2l0,-3z" id="path3656" stroke-width="1px" stroke="#000000" fill="#ffffff"/>
  <path d="m490,288.000183l0,4l2,2l3,0l5,6l12,10l3,3l1,3l3,3l2,3l2,0l1,-5l1,-2l4,0l3,-3l0,-3l3,-3l3,-2l0,-4l3,-4l3,-4l-3,0l-9,-8l-4,-1l-7,1l-2,2l-3,0l0,-3l-2,-2l-3,1l-10,0l-5,2l-6,4z" id="path3658" stroke-width="1px" stroke="#000000" fill="#ffffff"/>
  <path d="m463,291.000183l3,-1l11,-2l13,0l0,4l2,2l3,0l5,6l15,13l1,3l3,3l2,3l-1,3l-2,3l0,13l-6,0l-1,5l-9,0l-23,1l-3,-3l-2,-11l2,-6l-8,-19l-5,-17z" id="path3660" stroke-width="1px" stroke="#000000" fill="#ffffff"/>
  <path d="m449,356.000183l-3,-8l13,-2l17,-2l3,3l23,-1l9,0l1,-5l6,0l4,13l9,12l1,6l10,14l2,3l1,20l-2,4l-6,1l-3,-1l-5,-6l-5,-1l-2,-7l-2,-1l-1,-4l-3,0l-3,-5l0,-6l-1,-2l-3,0l-2,1l-1,-3l2,-3l0,-8l-8,-5l-7,-6l-6,-1l-8,8l-4,-1l-4,-7l-7,-1l-3,-1l-12,2z" id="path3662" stroke-width="1px" stroke="#000000" fill="#ffffff"/>
  <path d="m435,295.000183c2,0 16,-2 16,-2l12,-2l5,17l8,19l-2,6l2,11l-30,4l3,8l-5,3l-6,0l-2,-25l-1,-39z" id="path3664" stroke-width="1px" stroke="#000000" fill="#ffffff"/>
  <path d="m428,364.000183l1,-2l7,0l2,-3l-2,-25l-1,-39l-22,1l-4,3l0,6l-6,9l1,15l3,4l-1,3l-4,4l-2,8l0,4l15,-1l5,-1l1,6l2,1l2,5l3,2z" id="path3666" stroke-width="1px" stroke="#000000" fill="#ffffff"/>
  <path d="m374,370.000183c1,-1 2,-7 2,-7l-1,-5l3,-5l-4,-7l-3,-7l0,-13l21,0l12,-1l0,4l3,4l-1,3l-4,4l-2,8l0,4l15,-1l5,-1l1,6l2,1l2,5l3,2l-2,4l-1,1l0,2l7,2l0,3l-2,2l-4,-2l-5,-4l0,3l-3,1l-5,-1l-4,2l-4,-1l-4,-5l-2,-2l-3,2l-6,1l-5,-2l-11,0z" id="path3668" stroke-width="1px" stroke="#000000" fill="#ffffff"/>
  <path d="m371,319.000183l0,7l21,0l12,-1l-1,-11l6,-9l0,-6l4,-3l0,-7l2,-3l-1,-3l-2,-2l1,-4l-8,0l-2,1l-14,0l-26,1l0,2l1,9l1,5l1,23l5,0l0,1z" id="path3670" stroke-width="1px" stroke="#000000" fill="#ffffff"/>
  <path d="m413,296.000183l0,-7l2,-3l2,-5l1,-4l2,-2l13,0l7,-2l14,-2l16,-2l9,-1l3,-2l1,0l21,-3l0,3l-8,6l-3,1l-7,6l-5,2l-4,4l0,3l-11,2l-3,1l-28,4l-22,1z" id="path3672" stroke-width="1px" stroke="#000000" fill="#ffffff"/>
  <path d="m420,275.000183l2,-3l0,-5l1,-2l5,0l5,-8l1,-2l9,-1l6,-1l0,-3l2,0l2,2l2,-1l1,-4l3,-4l0,-2l4,0l2,-2l0,-5l5,1l2,3l4,0l1,1l6,0l2,-2l3,3l2,0l0,4l3,4l5,3l-10,11l-9,6l-39,5l-7,2l-13,0z" id="path3674" stroke-width="1px" stroke="#000000" fill="#ffffff"/>
  <path d="m433,257.000183l0,-7l3,-5l1,-4l-1,-2l0,-4l1,-3l-1,-1l0,-7l-1,-3l-1,-6l0,-11l5,0l2,-2l9,-2l10,0l5,34l0,5l-2,2l-4,0l0,2l-3,4l-1,4l-2,1l-2,-2l-2,0l0,3l-6,1l-9,1l-1,2z" id="path3676" stroke-width="1px" stroke="#000000" fill="#ffffff"/>
  <path d="m441.232758,202.060516l8.767242,-2.060349l10,0l3,-1l12,-2l0,-6l6,-7l0,-6l-2,-4l-2,-8l-2,-2l-2,2l-6,7l-2,-1l-1,-3l4,-6l1,-1l0,-6l-2,-2l0,-3.999985l-3,-1l-4,-1l-5,-3l-2,0l-3,2l0,4l-1,0.999985l-1,4l-1,3l-4,0l-1,2l0,5l-2,4l0,7l2,4l2,3l0,3l0,7l-2,4l-0.767242,4.060349z" id="path3678" stroke-width="1px" stroke="#000000" fill="#ffffff"/>
  <path d="m426,157.000183l-1,-4l-1,-3l-5,-4l-6,0l-1,-1l-8,-1l-4,-5l9,-4l9,-8l2,1l-3,4l0,3l6,-1l5,4l7,0l3,-3l9,-3l1,3l3,0l6,-1l1,4l-1,3l-8,1l-3,-1l-5,3l-4,0l-2,3l-3,1l-6,9z" id="path3680" stroke-width="1px" stroke="#000000" fill="#ffffff"/>
  <path d="m428.194,193.116608c-0.194,-0.116409 -27.194,1.883591 -27.194,1.883591l-5,-3l-2,-2l0,-7l-1,-6l-9,-8l-6,-2l-1,-11l-1,-1l1,-4l4,-2l0,-8l3,-2l6,-2.000015l3,1l7,1.000015l4,5l8,1l1,1l6,0l5,4l2,10l-2,2l0,4l4,-4l3,-4l-1,5l-1,7l-2,4l1.194,19.116409l0,0z" id="path3682" stroke-width="1px" stroke="#000000" fill="#ffffff"/>
  <path d="m428,193.000168l6,11l0,11l1,6l1,3l0,7.000015l1,1l-1,3l0,4l1,2l-1,4l-3,5l0,6l-5,9l-5,0l-1,2l-1,1l-2,0l-3,-9l-2,-3l-5,-1l-2,-3l1,-2l0,-6l-4,-1l-1,-3l-8,-7l-1,-9.000015l1,-3l3,-4l1,-3l-2,-1l1,-2l5,-3l3,-5l0,-2l-5,-6l27,-2z" id="path3684" stroke-width="1px" stroke="#000000" fill="#ffffff"/>
  <path d="m363,279.000183l25,-1l15,0l2,-1l8,0l-1,4l2,2l1,3l3,-7l0,-2l2,-2l2,-3l0,-5l-1,1l-2,0l-3,-9l-2,-3l-5,-1l-2,-3l1,-2l0,-6l-4,-1l-1,-3l-8,-7l-1,-9l-3,-1l-17,0l-25,0l1,4l7,6l2,1l-1,2l-1,2l1,3l4,3c0,0 0,27 0,28c0,1 1.215515,7.107758 1,7z" id="path3686" stroke-width="1px" stroke="#000000" fill="#ffffff"/>
  <path d="m342,184.000183l0,13l4,11l3,15l42,0l3,1l1,-3l3,-4l1,-3c0,0 -2,-1 -2,-1l1,-2l5,-3l3,-5l0,-2l-5,-6l-5,-3l-2,-2l0,-7l0,-1l-23,1l-29,1z" id="path3688" stroke-width="1px" stroke="#000000" fill="#ffffff"/>
  <path d="m342,184.000183l0,-25l-3,-3l-1,-2l3,-3l0,-6l-2,-9l-3,-14c0,0 0,-13 0,-13l21,0l9,6l3,0l2,-1l6,1l2,3l3,-1l3,2l5,0l2,-1l3,0l2,2l8,0l-9,5l-7,7l-8,9l0,8l-4,2l-1,4l1,1l1,11l6,2l9,8l1,5l-21,1l-31,1z" id="path3690" stroke-width="1px" stroke="#000000" fill="#ffffff"/>
  <path d="m336,109.000183l-32,-1l-30,-2l-1,22l-2,20l33,2l37,1l0,-6l-5,-23l0,-13z" id="path3692" stroke-width="1px" stroke="#000000" fill="#ffffff"/>
  <path d="m271,148.000183l-1,12l-3,28l54,3l5,3l9,-1l5,3l2,0l0,-12l0,-25l-3,-3l-1,-2l3,-3l-37,-1l-33,-2z" id="path3694" stroke-width="1px" stroke="#000000" fill="#ffffff"/>
  <path d="m267,188.000183l-2,26l20,2l0,13l34,2l36,1l-5,-5l-1,-4l-3,-15l-4,-11l0,-1l-2,0l-5,-3l-9,1l-5,-3l-24,-1l-30,-2z" id="path3696" stroke-width="1px" stroke="#000000" fill="#ffffff"/>
  <path d="m285,229.000183l-2,41l37,2l42,0l0,-28l-4,-3l-1,-3l2,-4l-3,-2l-38,-1l-33,-2z" id="path3698" stroke-width="1px" stroke="#000000" fill="#ffffff"/>
  <path d="m272,270.000183l0,6l31,2l1,3l-1,24l3,2l5,0l3,3l6,2l4,-1l3,3l7,1l8,-1l2,2l3,-1l6,-1l6,0l7,4l-1,-23l-1,-5l-1,-9l0,-2l-1,-7l-42,0l-37,-2l-11,0z" id="path3700" stroke-width="1px" stroke="#000000" fill="#ffffff"/>
  <path d="m272,276.000183l-1,0l-4,61l-42,-3l0,3l19,19l3,12l16,10l3,-2l5,-8l3,-1l5,1l5,1l7,6c0,0 3,8 3,8l5,9l7,8l1,6l6,10l8,4l7,0l2,3l3,0l0,-6l-2,-13l3,-8l3,-6l6,-5l6,-1l6,0l2,-3l4,-4l-1,-5l3,-2l2,4l3,-1l6,-3l1,-2l1,-5l-1,-5l3,-5l-4,-7l-3,-7l0,-21l-5,0l-7,-4l-6,0l-5,1l-4,1l-2,-2l-8,1l-7,-1l-3,-3l-4,1l-6,-2l-3,-3l-5,0l-3,-2l1,-24l-1,-3l-31,-2z" id="path3702" stroke-width="1px" stroke="#000000" fill="#ffffff"/>
  <path d="m206,263.000183l-9,76l9,1l2,-5l3,-1l14,3l0,-3l42,3l4,-61l1,-6l-30,-3l-36,-4z" id="path3704" stroke-width="1px" stroke="#000000" fill="#ffffff"/>
  <path d="m214,209.000198l-8,53.999802l66,7l11,0l2,-41l0,-12.999802l-20,-2l-23,-2l-28,-3l0,0z" id="path3706" stroke-width="1px" stroke="#000000" fill="#ffffff"/>
  <path d="m193,205.000168l21,4l51,5l2,-26l3,-27l-30,-3l-37,-6.999985l-10,53.999985z" id="path3708" stroke-width="1px" stroke="#000000" fill="#ffffff"/>
  <path d="m274,106.000183l-1,23l-2,19l-1,13l-30,-3l-37,-7l-1,5l-3,-1l-3,1l-12,0l-2,-5l-2,-1l-2,-13l-3,0l-1,2l-2,-3l1,-5l4,-8l-6,-4l0,-6l-4,-2l-1,-8l0,-7l2,-2l1,-6l17,4l36,7l28,4l24,3z" id="path3710" stroke-width="1px" stroke="#000000" fill="#ffffff"/>
  <path d="m169,88.000183l-8,-2l-10,39l3,4l-1,5l-11,12l2,3l1,4l-2,3l-1,5l-4,18l29,7l28,6l7,-36l-3,-1l-3,1l-12,0l-2,-5l-2,-1l-2,-13l-3,0l-1,2l-2,-3l1,-5l4,-8l-6,-4l0,-6l-4,-2l-1,-8l0,-7l2,-2l1,-6z" id="path3712" stroke-width="1px" stroke="#000000" fill="#ffffff"/>
  <path d="m167,186.000198l-14,66.999802l53,10l8,-53.999802l-21,-4l2,-13l-28,-6l0,0z" id="path3714" stroke-width="1px" stroke="#000000" fill="#ffffff"/>
  <path d="m206,263.000183l-9,76l-24,-4l-40,-24l1,-2l4,-1l0,-3l-2,-1l0,-4l4,-4l0,-4l5,-4l-2,-5l-2,-5l2,-3l-1,-12l4,0l2,3l4,-1l0,-5l1,-7l53,10z" id="path3716" stroke-width="1px" stroke="#000000" fill="#ffffff"/>
  <path d="m134,309.000183l-27,-4l-1,-9l-6,-10l-3,-2l0,-3l-2,-1l-6,0l-1,-4l-4,-3l-5,-2l-4,-4l0,-3l2,-2l-2,-5l-8,-19l1,-2l2,0l1,-3l-5,-4l0,-7l1,-2l3,2l1,-3l-1,-3l-3,1l-3,-2l0,-7l-4,-5l0,-10l2,-2l0,-6l-2,-2l0,-6l3,-2l4,-7l1,-11l40,15l-11,37l44,69l4,10l-5,4l0,4l-4,4l0,4l2,1l0,3l-4,1z" id="path3718" stroke-width="1px" stroke="#000000" fill="#ffffff"/>
  <path d="m97,209.000168l44,69.000015l2,-3l-1,-12l4,0l2,3l4,-1l0,-5l1,-7.000015l14,-67l-29,-7l-30,-7l-11,37z" id="path3720" stroke-width="1px" stroke="#000000" fill="#ffffff"/>
  <path d="m70,157.000183l40,15l30,7l5,-23l2,-3l-1,-4l-2,-3l11,-12l1,-5l-3,-4l-6,-1l-11,-4l-12,0l-10,-1l-4,-2l-8,0c0,0 -3,-2 -3,-2l1,-2l1,-3l-3,-3l-1,-2l-6,-1l-3,10l-10,21l-8,12l0,4l0,3l0,3z" id="path3722" stroke-width="1px" stroke="#000000" fill="#ffffff"/>
  <path d="m88.969849,104.000183l2.030151,-6l0,-8l1,-10l0,-5c0,0 2,-2 3,-2c1,0 10,9 10,9l2,4l-3,4l-1,5l4,1l2,-6l3,-3l-1,-7l2,-4c0,0 -1,-6 -1,-6l15,6l34,10l-10,39l-6,-1l-11,-4l-12,0l-10,-1l-4,-2l-8,0l-3,-2l2,-5l-3,-3l-1,-2l-6.030151,-1z" id="path3724" stroke-width="1px" stroke="#000000" fill="#ffffff"/>
 </g>
</svg>